<?xml version="1.0"?><svg width="400" height="400" xmlns="http://www.w3.org/2000/svg" xmlns:xlink="http://www.w3.org/1999/xlink">
 <title>license paw print</title>
 <defs>
  <linearGradient id="linearGradient15338">
   <stop id="stop15340" offset="0" stop-color="#ececec"/>
   <stop offset="0.388889" id="stop15342" stop-opacity="0.908163" stop-color="#e2e2e2"/>
   <stop id="stop15344" offset="1" stop-color="#b3b3b3"/>
  </linearGradient>
  <linearGradient id="linearGradient5942">
   <stop offset="0" id="stop5944" stop-color="#000000"/>
   <stop id="stop5950" offset="0.388889" stop-opacity="0.908163" stop-color="#e2e2e2"/>
   <stop offset="1" id="stop5946" stop-color="#000000"/>
  </linearGradient>
  <linearGradient id="linearGradient4929">
   <stop offset="0" id="stop4931" stop-color="#0b0b0b"/>
   <stop offset="1" id="stop4933" stop-color="#878787"/>
  </linearGradient>
  <linearGradient id="linearGradient4700">
   <stop offset="0" id="stop4702" stop-color="#0b0b0b"/>
   <stop offset="1" id="stop4704" stop-color="#878787"/>
  </linearGradient>
  <linearGradient id="linearGradient7111">
   <stop offset="0" id="stop7113" stop-opacity="0.408163" stop-color="#ffffff"/>
   <stop offset="1" id="stop7115" stop-opacity="0" stop-color="#ffffff"/>
  </linearGradient>
  <linearGradient id="linearGradient4750">
   <stop offset="0" id="stop4752" stop-opacity="0.408163" stop-color="#ffffff"/>
   <stop offset="1" id="stop4754" stop-opacity="0" stop-color="#ffffff"/>
  </linearGradient>
  <linearGradient id="linearGradient4783">
   <stop offset="0" id="stop4785" stop-opacity="0.408163" stop-color="#ffffff"/>
   <stop offset="1" id="stop4787" stop-opacity="0" stop-color="#ffffff"/>
  </linearGradient>
  <linearGradient id="linearGradient4816">
   <stop offset="0" id="stop4818" stop-opacity="0.408163" stop-color="#ffffff"/>
   <stop offset="1" id="stop4820" stop-opacity="0" stop-color="#ffffff"/>
  </linearGradient>
  <linearGradient id="linearGradient5942-1">
   <stop offset="0" id="stop5944-7" stop-color="#000000"/>
   <stop id="stop5950-4" offset="0.388889" stop-opacity="0.908163" stop-color="#e2e2e2"/>
   <stop offset="1" id="stop5946-0" stop-color="#000000"/>
  </linearGradient>
  <linearGradient id="linearGradient4929-9">
   <stop offset="0" id="stop4931-4" stop-color="#0b0b0b"/>
   <stop offset="1" id="stop4933-8" stop-color="#878787"/>
  </linearGradient>
  <linearGradient id="linearGradient7111-1">
   <stop offset="0" id="stop7113-5" stop-opacity="0.408163" stop-color="#ffffff"/>
   <stop offset="1" id="stop7115-2" stop-opacity="0" stop-color="#ffffff"/>
  </linearGradient>
  <linearGradient id="linearGradient5497">
   <stop offset="0" id="stop5499" stop-opacity="0.408163" stop-color="#ffffff"/>
   <stop offset="1" id="stop5501" stop-opacity="0" stop-color="#ffffff"/>
  </linearGradient>
  <linearGradient id="linearGradient5530">
   <stop offset="0" id="stop5532" stop-opacity="0.408163" stop-color="#ffffff"/>
   <stop offset="1" id="stop5534" stop-opacity="0" stop-color="#ffffff"/>
  </linearGradient>
  <linearGradient id="linearGradient5563">
   <stop offset="0" id="stop5565" stop-opacity="0.408163" stop-color="#ffffff"/>
   <stop offset="1" id="stop5567" stop-opacity="0" stop-color="#ffffff"/>
  </linearGradient>
  <linearGradient id="linearGradient10523">
   <stop offset="0" id="stop10525" stop-opacity="0.204082" stop-color="#1b1717"/>
   <stop id="stop10533" offset="0.5" stop-opacity="0.72449" stop-color="#e6e6e6"/>
   <stop offset="1" id="stop10527" stop-opacity="0" stop-color="#e6e6e6"/>
  </linearGradient>
  <linearGradient id="linearGradient3528">
   <stop id="stop3530" offset="0" stop-color="#333333"/>
   <stop id="stop3532" offset="1" stop-color="#808080"/>
  </linearGradient>
  <linearGradient id="linearGradient5958">
   <stop id="stop5960" offset="0" stop-color="#333333"/>
   <stop id="stop5962" offset="1" stop-color="#808080"/>
  </linearGradient>
  <linearGradient id="linearGradient5969">
   <stop id="stop5971" offset="0" stop-color="#333333"/>
   <stop id="stop5973" offset="1" stop-color="#808080"/>
  </linearGradient>
  <linearGradient id="linearGradient3274">
   <stop offset="0" id="stop3276" stop-color="#2d2929"/>
   <stop offset="1" id="stop3278" stop-color="#595959"/>
  </linearGradient>
  <linearGradient xlink:href="#linearGradient13578" id="linearGradient13584" x1="-10.606602" y1="-694.19159" x2="-9.192388" y2="-650.35095" gradientUnits="userSpaceOnUse" gradientTransform="translate(-10, -35)"/>
  <linearGradient id="linearGradient13578">
   <stop offset="0" id="stop13580" stop-opacity="0" stop-color="#000000"/>
   <stop id="stop13586" offset="0.5" stop-opacity="0.360825" stop-color="#000000"/>
   <stop offset="1" id="stop13582" stop-opacity="0" stop-color="#000000"/>
  </linearGradient>
  <linearGradient id="linearGradient6199">
   <stop offset="0" id="stop6201" stop-color="#000000"/>
   <stop offset="1" id="stop6203" stop-color="#999999"/>
  </linearGradient>
  <linearGradient id="linearGradient7111-3">
   <stop offset="0" id="stop7113-2" stop-opacity="0.408163" stop-color="#ffffff"/>
   <stop offset="1" id="stop7115-21" stop-opacity="0" stop-color="#ffffff"/>
  </linearGradient>
  <linearGradient id="linearGradient7256">
   <stop offset="0" id="stop7258" stop-color="#112b00"/>
   <stop offset="1" id="stop7260" stop-color="#66ff00"/>
  </linearGradient>
  <linearGradient id="linearGradient7111-18">
   <stop id="stop7113-9" offset="0" stop-opacity="0.408163" stop-color="#ffffff"/>
   <stop id="stop7115-27" offset="1" stop-opacity="0" stop-color="#ffffff"/>
  </linearGradient>
  <linearGradient id="linearGradient7228">
   <stop id="stop7230" offset="0" stop-color="#dbb10e"/>
   <stop id="stop7232" offset="1" stop-color="#f5ff00"/>
  </linearGradient>
  <linearGradient id="linearGradient7111-4">
   <stop id="stop7113-1" offset="0" stop-opacity="0.408163" stop-color="#ffffff"/>
   <stop id="stop7115-1" offset="1" stop-opacity="0" stop-color="#ffffff"/>
  </linearGradient>
  <linearGradient id="linearGradient7199">
   <stop offset="0" id="stop7201" stop-color="#550000"/>
   <stop offset="1" id="stop7203" stop-color="#ff0000"/>
  </linearGradient>
  <linearGradient id="linearGradient7111-42">
   <stop id="stop7113-7" offset="0" stop-opacity="0.408163" stop-color="#ffffff"/>
   <stop id="stop7115-7" offset="1" stop-opacity="0" stop-color="#ffffff"/>
  </linearGradient>
  <linearGradient id="linearGradient7171">
   <stop id="stop7173" offset="0" stop-color="#00112b"/>
   <stop id="stop7175" offset="1" stop-color="#0055d4"/>
  </linearGradient>
  <linearGradient id="linearGradient7111-6">
   <stop id="stop7113-50" offset="0" stop-opacity="0.408163" stop-color="#ffffff"/>
   <stop id="stop7115-28" offset="1" stop-opacity="0" stop-color="#ffffff"/>
  </linearGradient>
  <linearGradient y2="338.81863" x2="300.26785" y1="286.66653" x1="255.31609" gradientTransform="matrix(2.77539, 0, 0, 2.77539, -609.283, -63.5846)" gradientUnits="userSpaceOnUse" id="linearGradient13463-6" xlink:href="#linearGradient4148-5"/>
  <linearGradient id="linearGradient4148-5">
   <stop id="stop4150-09" offset="0" stop-color="#ffffff"/>
   <stop id="stop4152-0" offset="1" stop-opacity="0" stop-color="#ffffff"/>
  </linearGradient>
  <radialGradient r="53.035713" fy="386.57211" fx="312.78131" cy="386.57211" cx="312.78131" gradientTransform="matrix(-0.593266, -0.593266, 0.715046, -0.715049, 243.27, 849.034)" gradientUnits="userSpaceOnUse" id="radialGradient8431-0" xlink:href="#linearGradient7111-61"/>
  <linearGradient id="linearGradient7111-61">
   <stop id="stop7113-3" offset="0" stop-opacity="0.408163" stop-color="#ffffff"/>
   <stop id="stop7115-8" offset="1" stop-opacity="0" stop-color="#ffffff"/>
  </linearGradient>
  <linearGradient y2="391.44925" x2="341.99622" y1="300.86383" x1="275.60828" gradientUnits="userSpaceOnUse" id="linearGradient8429-9" xlink:href="#linearGradient7228-3"/>
  <linearGradient id="linearGradient7228-3">
   <stop id="stop7230-4" offset="0" stop-color="#dbb10e"/>
   <stop id="stop7232-4" offset="1" stop-color="#f5ff00"/>
  </linearGradient>
  <linearGradient y2="367.88477" x2="315.47369" y1="287.49377" x1="241.40979" gradientUnits="userSpaceOnUse" id="linearGradient8427-6" xlink:href="#linearGradient4156-61"/>
  <linearGradient id="linearGradient4156-61">
   <stop id="stop4158-84" offset="0" stop-color="#ffffff"/>
   <stop id="stop4160-9" offset="1" stop-opacity="0" stop-color="#ffffff"/>
  </linearGradient>
  <linearGradient y2="391.44925" x2="341.99622" y1="300.86383" x1="275.60828" gradientUnits="userSpaceOnUse" id="linearGradient3654" xlink:href="#linearGradient7256-6"/>
  <linearGradient id="linearGradient7256-6">
   <stop offset="0" id="stop7258-3" stop-color="#112b00"/>
   <stop offset="1" id="stop7260-7" stop-color="#66ff00"/>
  </linearGradient>
  <radialGradient r="53.035713" fy="386.57211" fx="312.78131" cy="386.57211" cx="312.78131" gradientTransform="matrix(-0.593266, -0.593266, 0.715046, -0.715049, 243.27, 849.034)" gradientUnits="userSpaceOnUse" id="radialGradient3656" xlink:href="#linearGradient7111-8"/>
  <linearGradient id="linearGradient7111-8">
   <stop id="stop7113-8" offset="0" stop-opacity="0.408163" stop-color="#ffffff"/>
   <stop id="stop7115-29" offset="1" stop-opacity="0" stop-color="#ffffff"/>
  </linearGradient>
  <linearGradient y2="338.81863" x2="300.26785" y1="286.66653" x1="255.31609" gradientTransform="matrix(0.287379, 0, 0, 0.287379, -571.764, -2.38954)" gradientUnits="userSpaceOnUse" id="linearGradient3659" xlink:href="#linearGradient4148"/>
  <linearGradient id="linearGradient4148">
   <stop id="stop4150" offset="0" stop-color="#ffffff"/>
   <stop id="stop4152" offset="1" stop-opacity="0" stop-color="#ffffff"/>
  </linearGradient>
  <linearGradient y2="367.88477" x2="315.47369" y1="287.49377" x1="241.40979" gradientUnits="userSpaceOnUse" id="linearGradient3652" xlink:href="#linearGradient4156"/>
  <linearGradient id="linearGradient4156">
   <stop id="stop4158" offset="0" stop-color="#ffffff"/>
   <stop id="stop4160" offset="1" stop-opacity="0" stop-color="#ffffff"/>
  </linearGradient>
  <linearGradient y2="367.88477" x2="315.47369" y1="287.49377" x1="241.40979" gradientUnits="userSpaceOnUse" id="linearGradient6947" xlink:href="#linearGradient4156"/>
  <linearGradient y2="367.88477" x2="315.47369" y1="287.49377" x1="241.40979" gradientUnits="userSpaceOnUse" id="linearGradient3628" xlink:href="#linearGradient4156-1"/>
  <linearGradient id="linearGradient4156-1">
   <stop id="stop4158-3" offset="0" stop-color="#ffffff"/>
   <stop id="stop4160-5" offset="1" stop-opacity="0" stop-color="#ffffff"/>
  </linearGradient>
  <linearGradient y2="391.44925" x2="341.99622" y1="300.86383" x1="275.60828" gradientUnits="userSpaceOnUse" id="linearGradient3630" xlink:href="#linearGradient7256-4"/>
  <linearGradient id="linearGradient7256-4">
   <stop offset="0" id="stop7258-0" stop-color="#112b00"/>
   <stop offset="1" id="stop7260-76" stop-color="#66ff00"/>
  </linearGradient>
  <radialGradient r="53.035713" fy="386.57211" fx="312.78131" cy="386.57211" cx="312.78131" gradientTransform="matrix(-0.593266, -0.593266, 0.715046, -0.715049, 243.27, 849.034)" gradientUnits="userSpaceOnUse" id="radialGradient3632" xlink:href="#linearGradient7111-36"/>
  <linearGradient id="linearGradient7111-36">
   <stop id="stop7113-15" offset="0" stop-opacity="0.408163" stop-color="#ffffff"/>
   <stop id="stop7115-4" offset="1" stop-opacity="0" stop-color="#ffffff"/>
  </linearGradient>
  <linearGradient y2="338.81863" x2="300.26785" y1="286.66653" x1="255.31609" gradientTransform="matrix(0.287379, 0, 0, 0.287379, -617.764, -2.38954)" gradientUnits="userSpaceOnUse" id="linearGradient3634" xlink:href="#linearGradient4148-2"/>
  <linearGradient id="linearGradient4148-2">
   <stop id="stop4150-0" offset="0" stop-color="#ffffff"/>
   <stop id="stop4152-9" offset="1" stop-opacity="0" stop-color="#ffffff"/>
  </linearGradient>
  <linearGradient xlink:href="#linearGradient3780" id="linearGradient7176" gradientUnits="userSpaceOnUse" gradientTransform="matrix(1.72594, 0, 0, 1.72594, 1184.52, 1688.67)" x1="-953.89557" y1="-353.32162" x2="-917.46674" y2="-325.32162"/>
  <linearGradient id="linearGradient3780">
   <stop offset="0" id="stop3782" stop-color="#666666"/>
   <stop offset="1" id="stop3784" stop-color="#ffffff"/>
  </linearGradient>
  <linearGradient xlink:href="#linearGradient7256-7" id="linearGradient7152" gradientUnits="userSpaceOnUse" gradientTransform="translate(148.792, -34.7292)" x1="-953.89557" y1="-353.32162" x2="-917.46674" y2="-325.32162"/>
  <linearGradient id="linearGradient7256-7">
   <stop offset="0" id="stop7258-4" stop-color="#112b00"/>
   <stop offset="1" id="stop7260-78" stop-color="#66ff00"/>
  </linearGradient>
  <linearGradient xlink:href="#linearGradient4156-3" id="linearGradient7154" gradientUnits="userSpaceOnUse" gradientTransform="matrix(0.965852, 0, 0, 0.718588, 115.944, -138.076)" x1="-948.25" y1="-370.65112" x2="-948.25" y2="-333.08163"/>
  <linearGradient id="linearGradient4156-3">
   <stop id="stop4158-7" offset="0" stop-color="#ffffff"/>
   <stop id="stop4160-1" offset="1" stop-opacity="0" stop-color="#ffffff"/>
  </linearGradient>
  <linearGradient xlink:href="#linearGradient3780-3" id="linearGradient7124" gradientUnits="userSpaceOnUse" gradientTransform="matrix(1.72594, 0, 0, 1.72594, 1260.02, 1689.17)" x1="-953.89557" y1="-353.32162" x2="-917.46674" y2="-325.32162"/>
  <linearGradient id="linearGradient3780-3">
   <stop offset="0" id="stop3782-6" stop-color="#666666"/>
   <stop offset="1" id="stop3784-3" stop-color="#ffffff"/>
  </linearGradient>
  <linearGradient xlink:href="#linearGradient7199-5" id="linearGradient7120" gradientUnits="userSpaceOnUse" gradientTransform="matrix(1.37287, 0, 0, 1.37287, 1646.43, -630.517)" x1="-953.89557" y1="-353.32162" x2="-917.46674" y2="-325.32162"/>
  <linearGradient id="linearGradient7199-5">
   <stop offset="0" id="stop7201-2" stop-color="#550000"/>
   <stop offset="1" id="stop7203-8" stop-color="#ff0000"/>
  </linearGradient>
  <linearGradient xlink:href="#linearGradient4156-0" id="linearGradient7117" gradientUnits="userSpaceOnUse" gradientTransform="matrix(1.32599, 0, 0, 0.986531, 1601.33, -772.398)" x1="-948.25" y1="-370.65112" x2="-948.25" y2="-333.08163"/>
  <linearGradient id="linearGradient4156-0">
   <stop id="stop4158-72" offset="0" stop-color="#ffffff"/>
   <stop id="stop4160-2" offset="1" stop-opacity="0" stop-color="#ffffff"/>
  </linearGradient>
 </defs>
 <metadata id="metadata4893">image/svg+xml</metadata>
 <g>
  <title>Layer 1</title>
  <g id="layer1">
   <g id="text11467" font-family="Eras Bold ITC" display="inline" fill="#000000" font-weight="normal" font-style="normal" font-size="225.160095px">
    <path d="m167.046005,44.991032l-5.611008,40.607967l-5.119995,6.189018l-0.947006,0.859993l-2.296997,2.646973l-2.121002,3.051025l-1.964005,3.401985l-1.806,3.752007l-1.577988,4.049988l-1.403,4.348022l-1.174011,4.593987l-0.911987,4.857002l-0.702011,5.049988l-0.403,5.26001l-0.15799,5.382996l0.15799,5.36499l0.403,5.26001l0.702011,5.049988l0.911987,4.856995l1.174011,4.594055l1.403,4.347961l1.577988,4.051025l1.806,3.768982l1.964005,3.383972l2.121002,3.051025l2.296997,2.64801l2.419998,2.208984l2.560013,1.789001l1.296997,0.700989l1.350998,0.596008l1.384995,0.473999l1.367004,0.333008l1.403,0.192993l1.438004,0.070007l1.419998,-0.070007l1.403,-0.192993l1.384995,-0.333008l1.367996,-0.473999l1.350006,-0.596008l1.315002,-0.700989l2.541992,-1.789001l2.420013,-2.208984l2.296997,-2.64801l2.121002,-3.051025l1.998993,-3.383972l1.770996,-3.768982l1.596008,-4.051025l1.401993,-4.347961l1.158005,-4.594055l0.929001,-4.856995l0.68399,-5.049988l0.333008,-4.208008l-0.438004,0.070007c0.740997,-15.044006 -1,-27.984985 -7.470001,-43.447998l-2.822998,-4.97998l-1.261993,-1.80603l-2.296997,-2.64801l-2.420013,-2.208984l-2.541992,-1.787956l-1.315002,-0.702034l-1.016998,-0.455017l-2.209,-4.593994l-5.242996,-37.907955zm67.330002,3.067989l-8.469009,42.958008l-1.298004,0.700989l-2.55899,1.789001l-2.419998,2.208984l-2.297012,2.64801l-1.244995,1.804993l-2.839996,4.97998c-4.876999,13.953003 -7.843994,28.329041 -7.470001,43.449036l-0.438004,-0.070007l0.333008,4.208008l0.68399,5.049988l0.929001,4.856995l1.175003,4.593018l1.403,4.348999l1.578003,4.049988l1.787994,3.77002l1.981003,3.383972l2.121994,3.051025l2.297012,2.646973l2.419998,2.210022l2.55899,1.787964l1.298004,0.700989l1.350006,0.597046l1.367996,0.472961l1.384995,0.333008l1.403,0.192993l1.419998,0.070007l1.438004,-0.070007l1.402008,-0.192993l1.384995,-0.333008l1.367996,-0.472961l1.350006,-0.597046l1.298004,-0.700989l2.559998,-1.787964l2.418991,-2.210022l2.297012,-2.646973l2.121994,-3.051025l1.964005,-3.383972l1.806,-3.77002l1.578003,-4.049988l1.401978,-4.348999l1.175018,-4.593018l0.929993,-4.856995l0.683014,-5.049988l0.403992,-5.26001l0.157013,-5.382996l-0.157013,-5.366028l-0.403992,-5.26001l-0.683014,-5.04895l-0.929993,-4.857063l-1.175018,-4.593987l-1.401978,-4.348999l-1.578003,-4.049988l-1.806,-3.752014l-1.964005,-3.401978l-2.121994,-3.049988l-2.297012,-2.64801l-0.945999,-0.859016l-5.119995,-6.189995l-5.610992,-40.607971l0,0zm-139.920197,74.903992l-0.07,0.036011l-0.0877,0l-0.070114,0.016968l-0.07019,0l-0.157898,0l-0.1577,0l-0.157799,0.035042l-0.140312,0.017998l-0.31559,0.051941l-0.070099,0.018005l-0.105209,0.052002l-0.15789,0.05304l-0.140312,0.034973l-0.1577,0.052979l-0.157799,0.070007l-0.157898,0.087036l-0.280502,0.122986l-0.140289,0.10498l-0.140213,0.106018l-0.280487,0.156982l-0.578712,0.421021l-0.315498,0.281006l-0.280487,0.263l-0.5261,0.542976l-1.052101,1.350029l-1.0168,1.614014l-0.91201,1.841003l-0.876503,2.085999l-0.753998,2.261963l-0.718903,2.471985l-1.104599,5.453003l-0.701401,6.067017l-0.263,6.434998l0.263,6.452026l0.701401,6.066956l1.104599,5.453003l0.718903,2.472046l0.753998,2.261963l0.876503,2.087036l0.228111,0.455994l-0.035011,0.244995l-0.0877,3.612l0.140198,3.77002l0.420799,3.891968l0.6838,4.067993l0.964401,4.103027l1.227402,4.208008l1.507904,4.242981l1.788406,4.226013l2.016388,4.138l2.191803,3.909973l2.31411,3.664978l2.473,3.401001l2.55999,3.139038l2.647011,2.839966l2.734985,2.54303l2.753014,2.244019l2.770988,1.875977l2.78701,1.526001l2.752991,1.192017l2.735001,0.789001l2.666,0.420959l2.611992,-0.034973l1.24501,-0.15802l1.22699,-0.263l1.193008,-0.385986l1.173996,-0.491028l1.123001,-0.595947l1.052002,-0.70105l0.998993,-0.806946l0.929001,-0.894043l1.666,-2.016968l1.420013,-2.367004l1.15799,-2.647034l0.910995,-2.945984l0.649002,-3.190979l0.368011,-3.418991l0.105988,-3.612015l-0.140991,-3.77002l-0.421005,-3.891968l-0.682999,-4.068054l-0.964981,-4.102966l-1.22702,-4.208008l-1.507996,-4.244019l-1.787994,-4.224976l-2.017014,-4.138l-2.156998,-3.909973l-2.348999,-3.665039l-2.455002,-3.401001l-2.576996,-3.138977l-2.629997,-2.840027l-2.718002,-2.542969l-2.752998,-2.209045l-2.788002,-1.91095l-2.788002,-1.526001l-2.769997,-1.192017l-2.735001,-0.789001l-2.682999,-0.421021l-2.577003,0.035034l-1.263,0.157959l-1.227188,0.263l-0.876709,0.281006l-0.017189,-0.087952l-1.192215,-3.296021l-1.104797,-3.455017l-0.91169,-3.612l-0.753899,-3.768982l-0.578712,-3.804993l-0.333,-3.735046l-0.157799,-3.612l0,-3.523987l0.227798,-3.367004l0.420799,-3.208008l0.105202,-0.490967l0.0877,-0.491028l0.157799,-0.928955l-0.017799,0l-0.034988,-0.036011l-0.017899,0l-0.035011,0l-0.07019,0l-0.052811,0l0.000412,0zm209.073212,0.052979l-0.035034,0.035042l-0.016998,0l0.15802,0.928947l0.088013,0.491028l0.105011,0.490974l0.42099,3.209038l0.22702,3.367004l0,3.523987l-0.157043,3.612l-0.332977,3.734985l-0.578979,3.804016l-0.754028,3.769958l-0.912018,3.612l-1.103973,3.454041l-1.193024,3.296997l-0.016968,0.086975l-0.877045,-0.279968l-1.22699,-0.263l-1.261963,-0.15802l-2.578003,-0.034973l-2.683044,0.420959l-2.734955,0.789001l-2.769989,1.192017l-2.788055,1.525024l-2.787964,1.911987l-2.752991,2.208984l-2.718048,2.541992l-2.629944,2.841003l-2.577057,3.138l-2.454987,3.402039l-2.348969,3.66394l-2.157043,3.910034l-2.015991,4.138l-1.788971,4.226013l-1.508026,4.242981l-1.22699,4.208008l-0.963989,4.102966l-0.684006,4.068054l-0.421005,3.892944l-0.139999,3.769043l0.105011,3.612l0.367996,3.419983l0.649002,3.190979l0.910995,2.945007l1.15802,2.64801l1.419952,2.366989l1.666046,2.015991l0.928955,0.89502l0.999054,0.805969l1.052002,0.702042l1.122986,0.596008l1.174011,0.490952l1.192993,0.38501l1.22699,0.263l1.244965,0.15802l2.613037,0.034988l2.665009,-0.419998l2.734985,-0.789001l2.753021,-1.192978l2.787994,-1.525024l2.769989,-1.875977l2.753021,-2.24501l2.734985,-2.541977l2.64801,-2.841003l2.559967,-3.138l2.472015,-3.402039l2.313965,-3.664001l2.192047,-3.909973l2.015961,-4.138l1.789001,-4.226013l1.508026,-4.242981l1.22702,-4.208008l0.964966,-4.103027l0.683014,-4.067993l0.421021,-3.893005l0.139954,-3.768982l-0.086975,-3.612l-0.035034,-0.245972l0.228027,-0.455994l0.876007,-2.085999l0.754974,-2.262024l0.718048,-2.471985l1.10498,-5.453003l0.701019,-6.067032l0.263,-6.452011l-0.263,-6.434998l-0.701019,-6.066971l-1.10498,-5.452988l-0.718048,-2.471985l-0.754974,-2.262024l-0.876007,-2.087036l-0.912018,-1.840958l-1.016998,-1.613022l-1.052002,-1.349983l-0.526001,-0.543999l-0.281006,-0.263l-0.315002,-0.280029l-0.578979,-0.420959l-0.279999,-0.15802l-0.140015,-0.10498l-0.140961,-0.105042l-0.280029,-0.122986l-0.15802,-0.088013l-0.15799,-0.070007l-0.15799,-0.052002l-0.140015,-0.034981l-0.15799,-0.052971l-0.105011,-0.05304l-0.069946,-0.016968l-0.31601,-0.05304l-0.140045,-0.016975l-0.15799,-0.034966l-0.15799,0l-0.15802,0l-0.069977,0l-0.070007,-0.018013l-0.088013,0l-0.070007,-0.035027l-0.051971,0l-0.071014,0l-0.035004,0l-0.016998,0l-0.001007,0l0.000031,0zm-105.711014,88.616028l-3.681992,0.209961l-3.559998,0.562012l-3.45401,0.945984l-3.313995,1.298035l-3.138,1.612976l-2.981003,1.894043c-9.713989,10.54895 -12.700989,21.098999 -17.515991,31.647949l-2.069,2.92804l-2.332001,2.700989l-2.578003,2.471985l-2.753006,2.208984l-2.979996,1.894043l-3.138992,1.612976c-11.44101,2.875977 -18.632004,7.169006 -24.863014,11.78302l-2.576988,2.471985l-2.332001,2.700012l-2.052002,2.945984l-2.770004,5.294983l-0.561005,1.210022l-1.209984,3.507019l-0.877007,3.664001l-0.561005,3.786987l-0.174995,3.909973l0.174995,3.893005l0.561005,3.804993l0.877007,3.664001l1.209984,3.507019l1.508011,3.33197l1.822998,3.173035l2.052002,2.927979l2.332001,2.700989l2.576988,2.472046l2.753006,2.208984l2.98101,1.911011l3.137985,1.596008l3.314011,1.315002c6.520996,3.329956 12.168991,3.393982 19.269989,0.613953l0.035004,-0.052979l2.069,-0.560974l3.313995,-1.315002l3.138,-1.596008l2.998001,-1.911011c18.088013,-11.653015 38.070999,-18.687012 69.223999,1.507996l2.981003,1.911011c9.934006,6.628967 20.39801,6.120972 31.157013,1.612976l3.120972,-1.612976l2.998993,-1.911011l2.753021,-2.210022l2.576996,-2.471985l2.314026,-2.700012l2.069,-2.927979l1.806,-3.174011l1.507965,-3.330994l1.228027,-3.507019l0.859009,-3.664978l0.560974,-3.804016l0.193024,-3.893005l-0.193024,-3.909973l-0.560974,-3.786987l-0.859009,-3.665039l-1.228027,-3.506958l-1.507965,-3.330994l-1.806,-3.174011l-2.069,-2.945007l-2.314026,-2.700989l-2.576996,-2.472046l-2.753021,-2.208984l-2.998993,-1.893982l-11.343964,-3.296021l-3.314011,-1.315002l-3.139008,-1.612976l-2.979996,-1.893982l-2.753006,-2.209045l-2.576996,-2.471985l-2.332001,-2.700989l-2.052002,-2.945007l-1.822998,-3.156006l-8.977997,-22.723999l-2.069,-2.945984l-2.314011,-2.700012l-2.577988,-2.473022l-2.753006,-2.208984l-2.979996,-1.893005l-3.139008,-1.612976l-3.313995,-1.298035l-3.453995,-0.94696l-3.577011,-0.561035l-3.664001,-0.209961l0,0z" id="path5127" fill-rule="evenodd" fill="#000000"/>
   </g>
  </g>
 </g>
</svg>